<?xml version="1.0" encoding="UTF-8" standalone="no"?>
<!DOCTYPE svg PUBLIC "-//W3C//DTD SVG 1.1//EN" "http://www.w3.org/Graphics/SVG/1.1/DTD/svg11.dtd">
<svg xmlns="http://www.w3.org/2000/svg" xmlns:xlink="http://www.w3.org/1999/xlink" version="1.1" width="199pt" height="458pt" viewBox="0 0 199 458">
<g enable-background="new">
<g id="Layer-1" data-name="Capa 1">
<clipPath id="cp1">
<path transform="matrix(1,0,0,-1,0,458)" d="M 0 458 L 199 458 L 199 0 L 0 0 Z "/>
</clipPath>
<g clip-path="url(#cp1)">
<path transform="matrix(1,0,0,-1,172.0356,325.85603)" d="M 0 0 C -.004 20.904 -5.237 57.484 -28.908 57.787 C -34.133 57.786 -32.905 63.627 -32.905 63.627 C -26.757 63.628 -24.913 65.473 -24.913 67.317 C -24.914 69.162 -26.156 137.406 -26.156 137.406 C -26.156 137.406 -26.158 144.784 -29.846 144.783 C -29.848 150.931 -32.307 151.546 -32.307 151.546 L -31.713 259.138 C -31.713 259.138 -42.782 272.047 -72.293 272.042 C -101.804 272.036 -113.483 259.123 -113.483 259.123 L -112.848 151.53 C -112.848 151.53 -115.307 150.915 -115.306 144.767 C -118.995 144.766 -118.993 137.388 -118.993 137.388 C -118.993 137.388 -120.21 69.144 -120.209 67.299 C -120.209 65.455 -118.364 63.611 -112.216 63.612 C -112.216 63.612 -110.985 57.771 -116.211 57.771 C -139.881 57.458 -145.101 20.876 -145.097 -.028 C -145.094 -13.268 -145.081 -82.987 -145.071 -132.33 L .025 -132.33 C .016 -82.985 .002 -13.242 0 0 "/>
<path transform="matrix(1,0,0,-1,69.5,101)" d="M 0 0 C 0 16.568 13.432 30 30 30 C 46.568 30 60 16.568 60 0 C 60 -16.568 46.568 -30 30 -30 C 13.432 -30 0 -16.568 0 0 " fill="#ffffff"/>
<path transform="matrix(1,0,0,-1,105.5068,101)" d="M 0 0 C 0 -3.317 -2.689 -6.007 -6.007 -6.007 C -9.324 -6.007 -12.014 -3.317 -12.014 0 C -12.014 3.317 -9.324 6.007 -6.007 6.007 C -2.689 6.007 0 3.317 0 0 "/>
<path transform="matrix(1,0,0,-1,105.5068,101)" stroke-width=".567" stroke-linecap="butt" stroke-miterlimit="10" stroke-linejoin="miter" fill="none" stroke="#231f20" d="M 0 0 C 0 -3.317 -2.689 -6.007 -6.007 -6.007 C -9.324 -6.007 -12.014 -3.317 -12.014 0 C -12.014 3.317 -9.324 6.007 -6.007 6.007 C -2.689 6.007 0 3.317 0 0 Z "/>
</g>
</g>
</g>
</svg>
